<?xml version="1.0" encoding="utf-8"?>
<!-- Generator: Adobe Illustrator 23.1.1, SVG Export Plug-In . SVG Version: 6.00 Build 0)  -->
<svg version="1.0" id="Layer_1" xmlns="http://www.w3.org/2000/svg" xmlns:xlink="http://www.w3.org/1999/xlink" x="0px" y="0px"
	 viewBox="0 0 31.97 10.71" style="enable-background:new 0 0 31.97 10.71;" xml:space="preserve">
<style type="text/css">
	.st0{fill:#FA7268;}
	.st1{clip-path:url(#SVGID_2_);}
	.st2{fill:#FFFFFF;}
</style>
<rect class="st0" width="10.71" height="10.71"/>
<g>
	<defs>
		<rect id="SVGID_1_" width="31.97" height="10.71"/>
	</defs>
	<clipPath id="SVGID_2_">
		<use xlink:href="#SVGID_1_"  style="overflow:visible;"/>
	</clipPath>
	<g class="st1">
		<path class="st2" d="M6.4,7.51h0.1V7.48c0-0.46-0.18-0.63-0.59-0.63c-0.14,0-0.43,0.04-0.43,0.21v0.17H4.74V6.9
			c0-0.6,0.84-0.66,1.18-0.66c1.07,0,1.38,0.56,1.38,1.28v1.2c0,0.09,0.05,0.14,0.14,0.14h0.25v0.67H6.97
			c-0.3,0-0.41-0.16-0.41-0.35c0-0.08,0.01-0.14,0.01-0.14H6.55c0,0-0.25,0.57-0.97,0.57c-0.57,0-1.09-0.36-1.09-1
			C4.49,7.59,5.87,7.51,6.4,7.51z M5.78,8.97c0.43,0,0.73-0.45,0.73-0.84V8.06H6.37c-0.41,0-1.07,0.06-1.07,0.5
			C5.3,8.77,5.45,8.97,5.78,8.97z"/>
		<path class="st2" d="M8.35,7.13c0-0.09-0.05-0.14-0.14-0.14H7.96V6.32h0.76c0.3,0,0.42,0.13,0.42,0.43v1.97
			c0,0.09,0.05,0.14,0.14,0.14h0.25v0.67H8.77c-0.3,0-0.42-0.13-0.42-0.43V7.13z M8.39,5.06h0.69v0.74H8.39V5.06z"/>
	</g>
	<g class="st1">
		<path class="st0" d="M11.85,5.88c0-0.09-0.05-0.14-0.14-0.14h-0.25V5.06h0.76c0.3,0,0.43,0.13,0.43,0.43v0.93
			c0,0.16-0.01,0.27-0.01,0.27h0.01c0,0,0.28-0.45,0.96-0.45c0.87,0,1.42,0.69,1.42,1.68c0,1.02-0.62,1.68-1.47,1.68
			c-0.67,0-0.96-0.45-0.96-0.45h-0.01c0,0,0.01,0.09,0.01,0.21v0.16h-0.75V5.88z M13.42,8.92c0.43,0,0.8-0.36,0.8-0.99
			c0-0.61-0.33-1.01-0.8-1.01c-0.42,0-0.8,0.3-0.8,1.01C12.62,8.43,12.89,8.92,13.42,8.92z"/>
		<path class="st0" d="M15.7,5.88c0-0.09-0.05-0.14-0.14-0.14h-0.25V5.06h0.76c0.29,0,0.43,0.13,0.43,0.43v3.23
			c0,0.09,0.05,0.14,0.14,0.14h0.25v0.67h-0.75c-0.3,0-0.43-0.13-0.43-0.43V5.88z"/>
		<path class="st0" d="M18.98,6.24c0.98,0,1.76,0.7,1.76,1.68c0,0.99-0.78,1.68-1.76,1.68c-0.97,0-1.75-0.69-1.75-1.68
			C17.23,6.94,18.01,6.24,18.98,6.24z M18.98,8.92c0.52,0,0.96-0.4,0.96-1c0-0.59-0.43-1-0.96-1c-0.52,0-0.95,0.41-0.95,1
			C18.04,8.52,18.47,8.92,18.98,8.92z"/>
		<path class="st0" d="M22.9,6.24c0.42,0,1.16,0.17,1.16,0.72v0.38h-0.7V7.16c0-0.18-0.26-0.25-0.46-0.25c-0.55,0-0.95,0.42-0.95,1
			c0,0.65,0.48,0.99,1,0.99c0.55,0,0.95-0.43,0.95-0.43l0.33,0.55c0,0-0.48,0.58-1.35,0.58c-1.06,0-1.74-0.75-1.74-1.68
			C21.15,7.01,21.8,6.24,22.9,6.24z"/>
		<path class="st0" d="M24.81,5.88c0-0.09-0.05-0.14-0.14-0.14h-0.25V5.06h0.76c0.3,0,0.43,0.07,0.43,0.36v2.02h0.24
			c0.1,0,0.23-0.02,0.3-0.12l0.65-1.01h0.89l-0.81,1.21c-0.14,0.2-0.24,0.25-0.24,0.25v0.01c0,0,0.11,0.04,0.23,0.25l0.36,0.69
			c0.05,0.09,0.11,0.12,0.26,0.12h0.21v0.67h-0.59c-0.27,0-0.38-0.04-0.5-0.28l-0.53-1.01c-0.06-0.11-0.2-0.12-0.3-0.12h-0.18v1.4
			h-0.8V5.88z"/>
		<path class="st0" d="M28.33,8.5c0,0,0.41,0.47,0.96,0.47c0.25,0,0.43-0.1,0.43-0.31c0-0.45-1.69-0.45-1.69-1.48
			c0-0.64,0.58-0.94,1.25-0.94c0.43,0,1.12,0.14,1.12,0.67v0.33h-0.7V7.08c0-0.15-0.23-0.23-0.4-0.23c-0.28,0-0.48,0.1-0.48,0.29
			c0,0.5,1.7,0.4,1.7,1.47c0,0.6-0.53,0.98-1.23,0.98c-0.88,0-1.33-0.57-1.33-0.57L28.33,8.5z"/>
		<path class="st0" d="M31.18,8.72h0.77v0.8h-0.77V8.72z"/>
	</g>
</g>
</svg>
