<?xml version="1.0" encoding="utf-8"?>
<!-- Generator: Adobe Illustrator 24.3.0, SVG Export Plug-In . SVG Version: 6.00 Build 0)  -->
<svg version="1.1" id="Layer_1" xmlns="http://www.w3.org/2000/svg" xmlns:xlink="http://www.w3.org/1999/xlink" x="0px" y="0px"
	 viewBox="0 0 36.2 9.3" style="enable-background:new 0 0 36.2 9.3;" xml:space="preserve">
<style type="text/css">
	.st0{enable-background:new    ;}
	.st1{fill:#FFFFFF;}
	.st2{fill:#FA7268;}
</style>
<g id="Layer_1_1_">
	<g class="st0">
		<path class="st1" d="M2.9,4.6H3v0c0-0.6-0.2-0.9-0.8-0.9C2,3.7,1.6,3.7,1.6,4v0.2h-1V3.7c0-0.8,1.2-0.9,1.6-0.9
			c1.5,0,1.9,0.8,1.9,1.7v1.6c0,0.1,0.1,0.2,0.2,0.2h0.3v0.9h-1c-0.4,0-0.6-0.2-0.6-0.5c0-0.1,0-0.2,0-0.2h0c0,0-0.3,0.8-1.3,0.8
			C1,7.4,0.3,6.9,0.3,6C0.3,4.7,2.2,4.6,2.9,4.6z M2,6.6c0.6,0,1-0.6,1-1.2V5.3H2.9C2.3,5.3,1.4,5.4,1.4,6C1.4,6.3,1.6,6.6,2,6.6z"
			/>
		<path class="st1" d="M5.6,4c0-0.1-0.1-0.2-0.2-0.2H5V2.9h1c0.4,0,0.6,0.2,0.6,0.6v2.7c0,0.1,0.1,0.2,0.2,0.2h0.3v0.9h-1
			c-0.4,0-0.6-0.2-0.6-0.6V4z M5.6,1.2h0.9v1H5.6V1.2z"/>
	</g>
	<g class="st0">
		<path class="st1" d="M8.1,2.3c0-0.1-0.1-0.2-0.2-0.2H7.5V1.2h1c0.4,0,0.6,0.2,0.6,0.6v1.3c0,0.2,0,0.4,0,0.4h0
			c0,0,0.4-0.6,1.3-0.6c1.2,0,1.9,0.9,1.9,2.3c0,1.4-0.9,2.3-2,2.3c-0.9,0-1.3-0.6-1.3-0.6h0c0,0,0,0.1,0,0.3v0.2h-1V2.3z M10.2,6.5
			c0.6,0,1.1-0.5,1.1-1.4c0-0.8-0.4-1.4-1.1-1.4c-0.6,0-1.1,0.4-1.1,1.4C9.1,5.8,9.5,6.5,10.2,6.5z"/>
	</g>
	<g class="st0">
		<path class="st1" d="M13.3,2.3c0-0.1-0.1-0.2-0.2-0.2h-0.3V1.2h1c0.4,0,0.6,0.2,0.6,0.6v4.4c0,0.1,0.1,0.2,0.2,0.2h0.3v0.9h-1
			c-0.4,0-0.6-0.2-0.6-0.6V2.3z"/>
		<path class="st1" d="M17.8,2.8c1.3,0,2.4,1,2.4,2.3c0,1.4-1.1,2.3-2.4,2.3c-1.3,0-2.4-0.9-2.4-2.3C15.4,3.8,16.5,2.8,17.8,2.8z
			 M17.8,6.5c0.7,0,1.3-0.6,1.3-1.4c0-0.8-0.6-1.4-1.3-1.4c-0.7,0-1.3,0.6-1.3,1.4C16.5,5.9,17.1,6.5,17.8,6.5z"/>
	</g>
	<g class="st0">
		<path class="st1" d="M23.2,2.8c0.6,0,1.6,0.2,1.6,1v0.5h-1V4.1c0-0.2-0.4-0.3-0.6-0.3c-0.8,0-1.3,0.6-1.3,1.4
			c0,0.9,0.7,1.4,1.4,1.4c0.7,0,1.3-0.6,1.3-0.6L25,6.6c0,0-0.7,0.8-1.9,0.8c-1.4,0-2.4-1-2.4-2.3C20.8,3.9,21.7,2.8,23.2,2.8z"/>
	</g>
	<g class="st0">
		<path class="st1" d="M25.8,2.3c0-0.1-0.1-0.2-0.2-0.2h-0.3V1.2h1c0.4,0,0.6,0.1,0.6,0.5v2.8h0.3c0.1,0,0.3,0,0.4-0.2l0.9-1.4h1.2
			l-1.1,1.7c-0.2,0.3-0.3,0.3-0.3,0.3v0c0,0,0.2,0.1,0.3,0.3l0.5,0.9c0.1,0.1,0.2,0.2,0.4,0.2h0.3v0.9h-0.8c-0.4,0-0.5-0.1-0.7-0.4
			l-0.7-1.4c-0.1-0.2-0.3-0.2-0.4-0.2h-0.2v1.9h-1.1V2.3z"/>
		<path class="st1" d="M30.6,5.9c0,0,0.6,0.6,1.3,0.6c0.3,0,0.6-0.1,0.6-0.4c0-0.6-2.3-0.6-2.3-2c0-0.9,0.8-1.3,1.7-1.3
			c0.6,0,1.5,0.2,1.5,0.9v0.5h-1V4c0-0.2-0.3-0.3-0.6-0.3c-0.4,0-0.7,0.1-0.7,0.4c0,0.7,2.3,0.6,2.3,2c0,0.8-0.7,1.3-1.7,1.3
			c-1.2,0-1.8-0.8-1.8-0.8L30.6,5.9z"/>
		<path class="st1" d="M34.5,6.2h1.1v1.1h-1.1V6.2z"/>
	</g>
</g>
<g id="Layer_3">
	<rect x="14.9" y="1.6" width="5.5" height="6.9"/>
	<rect x="34" y="5.9" width="2.1" height="1.8"/>
</g>
<g id="Layer_2_1_">
	<path class="st2" d="M15.8,2.8h3.6c0.2,0,0.4,0.2,0.4,0.4v3.6c0,0.2-0.2,0.4-0.4,0.4h-3.6c-0.2,0-0.4-0.2-0.4-0.4V3.2
		C15.3,3,15.5,2.8,15.8,2.8z"/>
	<path class="st2" d="M34.7,6.2h0.6c0.1,0,0.2,0.1,0.2,0.2v0.6c0,0.1-0.1,0.2-0.2,0.2h-0.6c-0.1,0-0.2-0.1-0.2-0.2V6.4
		C34.5,6.3,34.6,6.2,34.7,6.2z"/>
</g>
</svg>
