<?xml version="1.0" standalone="no"?>
<!DOCTYPE svg PUBLIC "-//W3C//DTD SVG 20010904//EN"
 "http://www.w3.org/TR/2001/REC-SVG-20010904/DTD/svg10.dtd">
<svg version="1.0" xmlns="http://www.w3.org/2000/svg"
 width="700.000000pt" height="700.000000pt" viewBox="0 0 700.000000 700.000000"
 preserveAspectRatio="xMidYMid meet">
<metadata>
Created by potrace 1.11, written by Peter Selinger 2001-2013
</metadata>
<g transform="translate(0.000000,700.000000) scale(0.100000,-0.100000)"
fill="#000000" stroke="none">
<path d="M0 3500 l0 -3500 3500 0 3500 0 0 3500 0 3500 -3500 0 -3500 0 0
-3500z m1687 2589 c243 -27 450 -130 537 -268 43 -67 56 -133 56 -278 l0 -133
-194 0 -194 0 -4 74 c-4 87 -20 116 -89 158 -136 84 -376 73 -492 -23 -84 -69
-106 -182 -54 -271 46 -79 125 -132 332 -222 215 -93 410 -195 485 -253 176
-137 260 -304 260 -518 0 -264 -139 -489 -375 -606 -254 -125 -601 -116 -880
24 -106 53 -307 205 -322 243 -2 7 49 80 117 164 l122 150 64 -59 c117 -110
278 -186 447 -213 218 -34 398 89 397 271 -1 125 -98 215 -368 343 -321 151
-444 224 -545 323 -118 115 -175 239 -184 400 -22 360 243 642 652 694 100 12
124 12 232 0z m2329 -14 c618 -108 1050 -691 974 -1315 -23 -188 -98 -388
-203 -545 l-46 -68 72 -66 c40 -36 96 -89 126 -117 l54 -51 -122 -134 c-68
-74 -128 -136 -133 -138 -6 -2 -66 52 -134 120 -109 109 -126 122 -142 111
-189 -134 -389 -200 -633 -209 -360 -14 -667 104 -914 352 -142 141 -237 296
-298 485 -43 132 -52 204 -52 395 1 164 3 189 29 289 120 467 482 807 948 891
104 19 365 19 474 0z"/>
<path d="M3590 5629 c-223 -58 -404 -208 -500 -414 -57 -122 -73 -199 -74
-350 0 -139 17 -224 68 -338 83 -189 259 -349 464 -420 74 -26 105 -31 212
-35 95 -3 142 0 190 12 74 19 213 82 208 94 -1 4 -52 54 -113 111 -60 56 -110
106 -110 111 0 9 99 123 198 228 l50 54 118 -118 c65 -65 120 -116 123 -113
14 14 67 133 85 193 133 432 -112 875 -543 986 -106 27 -271 27 -376 -1z"/>
</g>
</svg>
