<?xml version="1.0" encoding="utf-8"?>
<!-- Generator: Adobe Illustrator 24.3.0, SVG Export Plug-In . SVG Version: 6.00 Build 0)  -->
<svg version="1.1" id="Layer_1" xmlns="http://www.w3.org/2000/svg" xmlns:xlink="http://www.w3.org/1999/xlink" x="0px" y="0px"
	 viewBox="0 0 39 6.2" style="enable-background:new 0 0 39 6.2;" xml:space="preserve">
<style type="text/css">
	.st0{enable-background:new    ;}
	.st1{fill:#FFFFFF;}
	.st2{opacity:0.95;fill:#FA7268;}
</style>
<g id="Layer_1_1_">
	<g class="st0">
		<path class="st1" d="M0,5.2h0.1c0.1,0,0.2,0,0.3-0.2l1.8-5h1.2l1.8,5c0.1,0.2,0.1,0.2,0.3,0.2h0.1v1H4.9C4.5,6.1,4.4,6,4.2,5.6
			L3.8,4.5H1.8L1.4,5.6C1.3,6,1.1,6.1,0.7,6.1H0V5.2z M3.6,3.6L3.1,2.1C2.9,1.7,2.8,1.2,2.8,1.2h0c0,0-0.1,0.6-0.2,0.9L2,3.6H3.6z"
			/>
		<path class="st1" d="M6,5.2h0.6V1H6V0h2.3v1H7.7v4.2h0.6v1H6V5.2z"/>
		<path class="st1" d="M11.8,1h-0.6V0h2.6c1.1,0,1.9,0.6,1.9,1.6c0,0.7-0.4,1.1-0.7,1.3v0c0.7,0.2,1,0.8,1,1.4c0,1.2-1,1.8-2.1,1.8
			h-1.5c-0.4,0-0.6-0.2-0.6-0.6V1z M13.9,2.5c0.5,0,0.7-0.3,0.7-0.8c0-0.4-0.3-0.8-0.8-0.8h-0.9v1.5H13.9z M13.1,5.2H14
			c0.6,0,0.9-0.4,0.9-0.9c0-0.5-0.3-0.9-0.9-0.9h-1.1V5C12.9,5.1,13,5.2,13.1,5.2z"/>
		<path class="st1" d="M17,1.1C17,1,17,0.9,16.8,0.9h-0.3V0h1c0.4,0,0.6,0.2,0.6,0.6V5c0,0.1,0.1,0.2,0.2,0.2h0.3v0.9h-1
			c-0.4,0-0.6-0.2-0.6-0.6V1.1z"/>
	</g>
	<g class="st0">
		<path class="st1" d="M26.9,1.5c0.6,0,1.6,0.2,1.6,1V3h-1V2.8c0-0.2-0.4-0.3-0.6-0.3c-0.8,0-1.3,0.6-1.3,1.4c0,0.9,0.7,1.4,1.4,1.4
			c0.7,0,1.3-0.6,1.3-0.6l0.5,0.8c0,0-0.7,0.8-1.9,0.8c-1.4,0-2.4-1-2.4-2.3C24.5,2.6,25.4,1.5,26.9,1.5z"/>
	</g>
	<g class="st0">
		<path class="st1" d="M29.5,1.1c0-0.1-0.1-0.2-0.2-0.2h-0.3V0h1c0.4,0,0.6,0.1,0.6,0.5v2.8h0.3c0.1,0,0.3,0,0.4-0.2l0.9-1.4h1.2
			l-1.1,1.7C32.1,3.6,32,3.7,32,3.7v0c0,0,0.2,0.1,0.3,0.3L32.8,5c0.1,0.1,0.2,0.2,0.4,0.2h0.3v0.9h-0.8c-0.4,0-0.5-0.1-0.7-0.4
			l-0.7-1.4c-0.1-0.2-0.3-0.2-0.4-0.2h-0.2v1.9h-1.1V1.1z"/>
		<path class="st1" d="M34.3,4.7c0,0,0.6,0.6,1.3,0.6c0.3,0,0.6-0.1,0.6-0.4c0-0.6-2.3-0.6-2.3-2c0-0.9,0.8-1.3,1.7-1.3
			c0.6,0,1.5,0.2,1.5,0.9V3h-1V2.8c0-0.2-0.3-0.3-0.6-0.3c-0.4,0-0.7,0.1-0.7,0.4c0,0.7,2.3,0.6,2.3,2c0,0.8-0.7,1.3-1.7,1.3
			c-1.2,0-1.8-0.8-1.8-0.8L34.3,4.7z"/>
	</g>
</g>
<g id="Layer_2_1_">
	<path class="st2" d="M19.7,1.6h3.6c0.2,0,0.4,0.2,0.4,0.4v3.6c0,0.2-0.2,0.4-0.4,0.4h-3.6c-0.2,0-0.4-0.2-0.4-0.4V2
		C19.3,1.8,19.5,1.6,19.7,1.6z"/>
	<path class="st2" d="M38.2,4.9h0.6C38.9,4.9,39,5,39,5.2v0.6C39,5.9,38.9,6,38.8,6h-0.6C38.1,6,38,5.9,38,5.8V5.2
		C38,5,38.1,4.9,38.2,4.9z"/>
</g>
</svg>
