<svg id="Layer_1" data-name="Layer 1" xmlns="http://www.w3.org/2000/svg" viewBox="0 0 43.76 43.76"><defs><style>.cls-1{fill:#fa7268;}.cls-2{fill:#fff;}</style></defs><rect class="cls-1" width="43.76" height="43.76"/><path class="cls-2" d="M6.2,16.69a5.35,5.35,0,0,0,3.57,1.75c1.12,0,2.12-.61,2.12-1.75C11.89,14.18,5,14.39,5,9.8,5,7.42,7,5.65,9.87,5.65c1.73,0,4.38.81,4.38,2.91V9.93H11.8V9.26c0-.68-1-1.14-2-1.14-1.24,0-2.16.65-2.16,1.58,0,2.51,6.94,2,6.94,6.85,0,2.34-1.81,4.34-4.9,4.34A6.8,6.8,0,0,1,4.66,18.6Z"/><path class="cls-2" d="M23.61,5.67a7.44,7.44,0,0,1,7.64,7.52,7.74,7.74,0,0,1-1.62,4.64l1.59,1.46-1.61,1.76L28,19.47a7.09,7.09,0,0,1-4.4,1.42,7.55,7.55,0,0,1-7.6-7.7A7.43,7.43,0,0,1,23.61,5.67Zm0,12.68a4.12,4.12,0,0,0,2.43-.7l-1.5-1.39,1.6-1.77L27.63,16a5.26,5.26,0,0,0,.79-2.8,4.79,4.79,0,1,0-9.58,0A4.92,4.92,0,0,0,23.61,18.35Z"/></svg>